<svg width="32" height="32" viewBox="0 0 32 32" fill="none" xmlns="http://www.w3.org/2000/svg">
<path d="M32 16C32 24.8366 24.8366 32 16 32C7.16344 32 0 24.8366 0 16C0 7.16344 7.16344 0 16 0C24.8366 0 32 7.16344 32 16Z" fill="#394BFF"/>
<path d="M12.137 11.9375H15.3142L18.3262 20H16.3182L13.9449 13.4799H13.5121L11.1457 20H9.125L12.137 11.9375ZM11.4507 16.9363H16.0132V18.1456H11.4507V16.9363Z" fill="white"/>
<path d="M17.9989 11.9375L20.9944 20H19.0118L16.0132 11.9375H17.9989Z" fill="white"/>
<path d="M19.8993 11.9375L22.875 20H21.6665L18.6679 11.9375H19.8993Z" fill="white"/>
<path d="M16 3.375V5.5625L6.78125 10.875L6.8125 21.3125L4.875 22.375V9.80956L16 3.375Z" fill="white"/>
<path d="M15.9978 28.625L16 26.4375L25.125 21.3125V10.875L27.125 9.88557L27.125 22.375L15.9978 28.625Z" fill="white"/>
<path d="M27.125 22.375L25.125 21.3125V10.875L16 5.5625V3.375L27.1245 9.80867L27.125 22.375Z" fill="white"/>
<path d="M4.87501 9.88558L6.78125 10.875L6.8125 21.3125L16 26.4375L15.9978 28.625L4.875 22.375L4.87501 9.88558Z" fill="white"/>
</svg>
